# xmcd CD database file
#
# Track frame offsets:
#	150
#	22117
#	41697
#	64417
#	84825
#	108010
#	132517
#	156692
#	176122
#	197247
#	217972
#	238397
#	260620
#	285125
#
# Disc length: 4190 seconds
#
# Revision: 3
# Processed by: cddbd v1.5.1PL0 Copyright (c) Steve Scherf et al.
# Submitted via: CDex 1.50
#
DISCID=d1105c0e
DTITLE=Mylene Farmer - Innamoramento
DYEAR=2000
DGENRE=New Age
TTITLE0=L'Amour Naissant
TTITLE1=L'Ame-stram-gram
TTITLE2=Pas Le Temps De Vivre
TTITLE3=Dessine-moi Un Mouton
TTITLE4=Je Te Rends Ton Amour
TTITLE5=Mefie-Toi
TTITLE6=Innamoramento
TTITLE7=Optimistique-moi
TTITLE8=Serais-tu La?
TTITLE9=Consentement
TTITLE10=Et Si Vieillir M'etait Conte
TTITLE11=Souviens-toi Du Jour
TTITLE12=Mylenium
TTITLE13=L'Ame-stram-gram (Remix)
EXTD=Вам Это Отправил Женька Сидоров YEAR: 2000
EXTT0=
EXTT1=
EXTT2=
EXTT3=
EXTT4=
EXTT5=
EXTT6=
EXTT7=
EXTT8=
EXTT9=
EXTT10=
EXTT11=
EXTT12=
EXTT13=
PLAYORDER=
